<svg xmlns="http://www.w3.org/2000/svg" xmlns:xlink="http://www.w3.org/1999/xlink" width="500" zoomAndPan="magnify" viewBox="0 0 375 374.999991" height="500" preserveAspectRatio="xMidYMid meet" version="1.0"><path fill="#ffffff" d="M 173.613281 74.691406 C 173.613281 84.4375 169.667969 93.265625 163.277344 99.65625 C 156.886719 106.035156 148.070312 109.992188 138.316406 109.992188 L 39.023438 109.992188 C 19.429688 109.992188 2.890625 93.957031 3.074219 74.355469 C 3.15625 64.734375 7.09375 56.042969 13.410156 49.730469 C 19.800781 43.339844 28.628906 39.394531 38.371094 39.394531 L 70.871094 39.394531 C 71.671875 39.394531 72.492188 39.410156 73.316406 39.433594 C 72.726562 39.410156 72.128906 39.394531 71.527344 39.394531 L 138.3125 39.394531 C 157.8125 39.394531 173.613281 55.191406 173.613281 74.691406 Z M 173.613281 74.691406 " fill-opacity="1" fill-rule="nonzero"/><path fill="#ffffff" d="M 138.316406 110.335938 L 39.023438 110.335938 C 29.382812 110.335938 19.917969 106.363281 13.0625 99.441406 C 6.3125 92.625 2.640625 83.714844 2.730469 74.347656 C 2.8125 64.964844 6.519531 56.132812 13.164062 49.484375 C 19.894531 42.753906 28.847656 39.046875 38.371094 39.046875 L 70.871094 39.046875 C 71.089844 39.046875 71.308594 39.050781 71.527344 39.050781 L 71.527344 39.046875 L 138.3125 39.046875 C 157.96875 39.046875 173.957031 55.039062 173.957031 74.691406 C 173.957031 84.214844 170.25 93.164062 163.519531 99.894531 C 156.78125 106.628906 147.828125 110.335938 138.316406 110.335938 Z M 38.371094 39.738281 C 29.03125 39.738281 20.253906 43.371094 13.652344 49.972656 C 7.132812 56.492188 3.496094 65.152344 3.414062 74.359375 C 3.328125 83.539062 6.925781 92.273438 13.546875 98.957031 C 20.277344 105.75 29.558594 109.648438 39.019531 109.648438 L 138.3125 109.648438 C 147.644531 109.648438 156.421875 106.011719 163.03125 99.414062 C 169.628906 92.8125 173.265625 84.035156 173.265625 74.695312 C 173.265625 55.417969 157.585938 39.738281 138.3125 39.738281 L 73.308594 39.738281 L 73.304688 39.78125 C 72.480469 39.753906 71.667969 39.738281 70.871094 39.738281 Z M 38.371094 39.738281 " fill-opacity="1" fill-rule="nonzero"/><path fill="#060f11" d="M 138.316406 110.59375 L 39.023438 110.59375 C 29.3125 110.59375 19.785156 106.59375 12.878906 99.621094 C 6.078125 92.757812 2.382812 83.78125 2.472656 74.347656 C 2.554688 64.894531 6.289062 56 12.984375 49.304688 C 19.761719 42.523438 28.78125 38.792969 38.375 38.792969 L 70.875 38.792969 C 71.070312 38.792969 71.269531 38.792969 71.472656 38.796875 C 71.492188 38.792969 71.511719 38.792969 71.53125 38.792969 L 138.316406 38.792969 C 158.113281 38.792969 174.21875 54.898438 174.21875 74.695312 C 174.21875 84.285156 170.484375 93.304688 163.707031 100.082031 C 156.914062 106.859375 147.898438 110.59375 138.316406 110.59375 Z M 38.371094 39.996094 C 29.101562 39.996094 20.386719 43.601562 13.832031 50.15625 C 7.363281 56.625 3.753906 65.222656 3.671875 74.363281 C 3.585938 83.472656 7.160156 92.144531 13.730469 98.777344 C 20.414062 105.523438 29.628906 109.390625 39.019531 109.390625 L 138.3125 109.390625 C 147.578125 109.390625 156.292969 105.78125 162.851562 99.230469 C 169.402344 92.679688 173.011719 83.964844 173.011719 74.695312 C 173.011719 55.5625 157.445312 39.996094 138.3125 39.996094 L 73.539062 39.996094 C 73.464844 40.023438 73.386719 40.042969 73.296875 40.039062 C 72.476562 40.011719 71.667969 39.996094 70.871094 39.996094 Z M 38.371094 39.996094 " fill-opacity="1" fill-rule="nonzero"/><path fill="#141323" d="M 49.554688 62.421875 C 43.953125 56.820312 34.839844 56.820312 29.242188 62.421875 C 23.640625 68.023438 23.640625 77.132812 29.242188 82.734375 C 34.199219 87.695312 41.910156 88.257812 47.5 84.4375 L 54.8125 91.75 C 55.847656 92.785156 57.53125 92.785156 58.566406 91.75 C 59.605469 90.710938 59.605469 89.03125 58.566406 87.992188 L 51.253906 80.679688 C 55.078125 75.089844 54.511719 67.378906 49.554688 62.421875 Z M 45.796875 78.980469 C 42.265625 82.507812 36.527344 82.507812 32.996094 78.980469 C 29.464844 75.449219 29.464844 69.707031 32.996094 66.175781 C 36.527344 62.648438 42.265625 62.648438 45.796875 66.175781 C 49.328125 69.707031 49.328125 75.449219 45.796875 78.980469 Z M 45.796875 78.980469 " fill-opacity="1" fill-rule="nonzero"/><path fill="#060f11" d="M 76.339844 96.113281 C 76.007812 96.113281 75.738281 95.84375 75.738281 95.511719 L 75.738281 55.832031 C 75.738281 55.496094 76.007812 55.230469 76.339844 55.230469 C 76.675781 55.230469 76.941406 55.496094 76.941406 55.832031 L 76.941406 95.511719 C 76.941406 95.839844 76.675781 96.113281 76.339844 96.113281 Z M 76.339844 96.113281 " fill-opacity="1" fill-rule="nonzero"/><path fill="#ffc1a4" d="M 347.78125 307.15625 L 331.890625 294.402344 L 315.789062 316.304688 L 336.585938 328.921875 " fill-opacity="1" fill-rule="nonzero"/><path fill="#000000" d="M 324.460938 321.265625 L 343.902344 304.046875 L 339.230469 300.375 Z M 324.460938 321.265625 " fill-opacity="1" fill-rule="nonzero"/><path fill="#ff452d" d="M 342.96875 359.652344 C 343 359.675781 343.042969 359.703125 343.078125 359.722656 L 347.261719 362.316406 L 372.539062 321.53125 L 368.457031 319.003906 L 367.152344 318.191406 C 358.773438 313.46875 347.546875 305.269531 347.546875 305.269531 L 332.851562 329.28125 L 335.410156 331.449219 C 337.484375 333.210938 338.871094 335.539062 339.472656 338.054688 C 340.074219 340.578125 339.894531 343.277344 338.835938 345.785156 C 336.5625 350.792969 338.335938 356.707031 342.96875 359.652344 Z M 342.96875 359.652344 " fill-opacity="1" fill-rule="nonzero"/><path fill="#000000" d="M 342.96875 359.652344 C 343 359.675781 343.042969 359.703125 343.078125 359.722656 L 347.261719 362.316406 L 372.539062 321.53125 L 368.460938 319 L 368.457031 319.003906 Z M 342.96875 359.652344 " fill-opacity="1" fill-rule="nonzero"/><path fill="#060606" d="M 339.144531 337.558594 C 338.929688 337.558594 338.71875 337.457031 338.589844 337.277344 C 338.40625 337.027344 338.414062 336.6875 338.605469 336.445312 L 342.976562 330.964844 L 337.6875 332.71875 C 337.402344 332.8125 337.082031 332.710938 336.910156 332.460938 C 336.734375 332.210938 336.742188 331.878906 336.929688 331.640625 L 342.527344 324.511719 C 342.761719 324.210938 343.195312 324.160156 343.492188 324.394531 C 343.792969 324.628906 343.84375 325.0625 343.609375 325.359375 L 339.421875 330.695312 L 344.742188 328.925781 C 345.03125 328.832031 345.351562 328.9375 345.523438 329.1875 C 345.699219 329.4375 345.6875 329.769531 345.496094 330.007812 L 341.242188 335.347656 L 346.742188 333.273438 C 347.09375 333.140625 347.492188 333.320312 347.628906 333.675781 C 347.761719 334.03125 347.582031 334.429688 347.226562 334.5625 L 339.390625 337.515625 C 339.304688 337.546875 339.222656 337.558594 339.144531 337.558594 Z M 339.144531 337.558594 " fill-opacity="1" fill-rule="nonzero"/><path fill="#060606" d="M 339.902344 344.714844 C 339.828125 344.714844 339.753906 344.703125 339.679688 344.679688 C 339.324219 344.558594 339.128906 344.171875 339.25 343.8125 C 339.265625 343.761719 340.972656 338.875 347.433594 340.25 C 347.804688 340.328125 348.042969 340.695312 347.964844 341.066406 C 347.882812 341.4375 347.519531 341.671875 347.148438 341.59375 C 341.917969 340.484375 340.605469 344.097656 340.554688 344.25 C 340.453125 344.535156 340.1875 344.714844 339.902344 344.714844 Z M 339.902344 344.714844 " fill-opacity="1" fill-rule="nonzero"/><path fill="#141323" d="M 344.140625 296.546875 L 316.894531 333.488281 L 248.40625 280.097656 L 244.476562 277.035156 C 239.84375 274.292969 236.214844 270.375 233.832031 265.816406 C 230.964844 260.328125 229.914062 253.917969 231.109375 247.542969 L 243.421875 182.097656 L 288.984375 178.984375 L 276.347656 247.28125 Z M 344.140625 296.546875 " fill-opacity="1" fill-rule="nonzero"/><path fill="#000000" d="M 275.375 239.03125 L 243.746094 276.589844 C 239.464844 273.875 236.085938 270.132812 233.832031 265.816406 C 246.003906 255.835938 273.179688 234.113281 273.179688 234.113281 Z M 275.375 239.03125 " fill-opacity="1" fill-rule="nonzero"/><path fill="#ffffff" d="M 316.84375 305.882812 C 316.722656 305.882812 316.601562 305.84375 316.5 305.773438 L 258.394531 265.039062 C 251.839844 260.441406 248.925781 252.183594 251.148438 244.488281 L 264.410156 198.585938 C 264.5 198.265625 264.832031 198.082031 265.152344 198.175781 C 265.472656 198.265625 265.65625 198.601562 265.5625 198.917969 L 252.304688 244.824219 C 250.226562 252.023438 252.953125 259.75 259.085938 264.050781 L 317.1875 304.785156 C 317.460938 304.976562 317.527344 305.351562 317.335938 305.625 C 317.21875 305.792969 317.03125 305.882812 316.84375 305.882812 Z M 316.84375 305.882812 " fill-opacity="1" fill-rule="nonzero"/><path fill="#ffc1a4" d="M 174.882812 336.84375 L 188.003906 321.257812 L 166.480469 304.648438 L 153.382812 325.148438 " fill-opacity="1" fill-rule="nonzero"/><path fill="#000000" d="M 161.320312 313.203125 L 178.082031 333.042969 L 181.859375 328.453125 Z M 161.320312 313.203125 " fill-opacity="1" fill-rule="nonzero"/><path fill="#ff452d" d="M 122.515625 330.8125 C 122.488281 330.847656 122.464844 330.886719 122.441406 330.921875 L 119.75 335.042969 L 159.9375 361.261719 L 162.558594 357.238281 L 163.398438 355.953125 C 168.316406 347.6875 176.773438 336.652344 176.773438 336.652344 L 153.109375 321.402344 L 150.878906 323.910156 C 149.074219 325.941406 146.714844 327.273438 144.1875 327.816406 C 141.652344 328.359375 138.953125 328.117188 136.472656 327.003906 C 131.519531 324.617188 125.566406 326.253906 122.515625 330.8125 Z M 122.515625 330.8125 " fill-opacity="1" fill-rule="nonzero"/><path fill="#000000" d="M 122.515625 330.8125 C 122.488281 330.847656 122.464844 330.886719 122.441406 330.921875 L 119.75 335.042969 L 159.9375 361.261719 L 162.5625 357.242188 L 162.558594 357.234375 Z M 122.515625 330.8125 " fill-opacity="1" fill-rule="nonzero"/><path fill="#060606" d="M 148.148438 336.113281 C 147.863281 336.113281 147.597656 335.9375 147.5 335.652344 L 144.730469 327.75 C 144.625 327.457031 144.730469 327.132812 144.988281 326.957031 C 145.242188 326.78125 145.582031 326.792969 145.820312 326.992188 L 151.195312 331.488281 L 149.5625 326.160156 C 149.476562 325.871094 149.585938 325.558594 149.839844 325.386719 C 150.089844 325.21875 150.425781 325.238281 150.660156 325.429688 L 157.660156 331.191406 C 157.953125 331.433594 157.996094 331.867188 157.753906 332.160156 C 157.511719 332.453125 157.078125 332.492188 156.785156 332.25 L 151.550781 327.941406 L 153.191406 333.304688 C 153.28125 333.59375 153.167969 333.910156 152.914062 334.078125 C 152.660156 334.246094 152.324219 334.226562 152.089844 334.03125 L 146.855469 329.652344 L 148.800781 335.199219 C 148.925781 335.558594 148.738281 335.949219 148.378906 336.074219 C 148.300781 336.101562 148.222656 336.113281 148.148438 336.113281 Z M 148.148438 336.113281 " fill-opacity="1" fill-rule="nonzero"/><path fill="#060606" d="M 141.140625 336.261719 C 141.085938 336.261719 141.035156 336.253906 140.980469 336.242188 C 140.609375 336.15625 140.382812 335.785156 140.46875 335.414062 C 141.703125 330.214844 138.121094 328.816406 137.96875 328.757812 C 137.613281 328.625 137.429688 328.234375 137.558594 327.878906 C 137.6875 327.523438 138.082031 327.339844 138.433594 327.464844 C 138.484375 327.484375 143.328125 329.308594 141.808594 335.730469 C 141.730469 336.046875 141.453125 336.261719 141.140625 336.261719 Z M 141.140625 336.261719 " fill-opacity="1" fill-rule="nonzero"/><path fill="#141323" d="M 314.6875 172.488281 L 313.550781 184.160156 C 311.984375 200.203125 304.035156 214.941406 291.492188 225.066406 L 248.253906 259.960938 L 185.980469 331.84375 L 153.382812 306.695312 L 210.910156 238.035156 C 212.117188 236.417969 213.402344 234.859375 214.761719 233.367188 L 266.332031 179.921875 Z M 314.6875 172.488281 " fill-opacity="1" fill-rule="nonzero"/><path fill="#ffffff" d="M 234.085938 214.523438 C 233.9375 214.523438 233.789062 214.46875 233.671875 214.359375 C 233.429688 214.132812 233.417969 213.753906 233.644531 213.511719 L 253.769531 192.074219 C 253.996094 191.832031 254.378906 191.820312 254.621094 192.046875 C 254.863281 192.277344 254.875 192.65625 254.648438 192.898438 L 234.523438 214.335938 C 234.40625 214.460938 234.246094 214.523438 234.085938 214.523438 Z M 234.085938 214.523438 " fill-opacity="1" fill-rule="nonzero"/><path fill="#ffc1a4" d="M 212.34375 127.578125 L 197.113281 159.007812 L 161.675781 158.886719 L 159.421875 188.488281 L 203.609375 192.484375 C 214.429688 192.050781 223.972656 185.265625 227.933594 175.1875 L 241.242188 141.355469 Z M 212.34375 127.578125 " fill-opacity="1" fill-rule="nonzero"/><path fill="#f7b094" d="M 206.183594 140.289062 L 231.832031 165.277344 L 237.625 151.59375 Z M 206.183594 140.289062 " fill-opacity="1" fill-rule="nonzero"/><path fill="#4a4ddc" d="M 238.816406 96.996094 L 226.058594 101.449219 C 220.082031 103.539062 215.253906 108.023438 212.734375 113.828125 C 208.429688 123.746094 202.191406 138.210938 202.429688 138.210938 C 202.792969 138.210938 237.128906 158.160156 237.128906 158.160156 L 258.652344 112.820312 Z M 238.816406 96.996094 " fill-opacity="1" fill-rule="nonzero"/><path fill="#4a4ddc" d="M 240.132812 96.464844 L 275.164062 83.550781 C 281.71875 81.132812 287.132812 82.269531 291.792969 85.773438 C 296.128906 89.035156 298.988281 93.886719 300.066406 99.207031 L 316.84375 178.988281 L 239.429688 183.1875 L 230.796875 111.738281 C 229.996094 105.097656 233.859375 98.777344 240.132812 96.464844 Z M 240.132812 96.464844 " fill-opacity="1" fill-rule="nonzero"/><path fill="#ffc1a4" d="M 349.878906 120.171875 C 349.878906 126.789062 346.734375 133.105469 341.28125 137.09375 L 292.886719 172.488281 L 287.851562 175.679688 C 282.324219 180.492188 273.734375 187.925781 273.003906 188.433594 C 271.910156 189.191406 269.839844 189.308594 268.914062 188.371094 C 267.371094 186.824219 269.394531 184.425781 269.613281 184.171875 C 269.367188 184.410156 266.582031 187.019531 264.78125 185.023438 C 262.882812 182.917969 265.886719 179.921875 265.886719 179.921875 C 265.886719 179.921875 261.652344 183.109375 259.628906 180.214844 C 257.8125 177.59375 260.378906 174.777344 260.984375 174.34375 C 260.316406 174.75 257.175781 176.191406 254.824219 173.015625 C 252.792969 170.285156 264.347656 160.769531 264.347656 160.769531 L 258.144531 160.859375 C 256.613281 160.546875 255.511719 159.195312 255.527344 157.625 C 255.53125 156.636719 255.980469 155.757812 256.679688 155.164062 C 257.230469 154.703125 257.917969 154.429688 258.675781 154.410156 L 275.074219 151.320312 L 278.546875 149.683594 L 318.726562 123.25 L 305.367188 118.023438 L 315.617188 91.148438 L 337.558594 101.078125 C 343.859375 103.929688 348.347656 109.707031 349.554688 116.515625 C 349.765625 117.738281 349.878906 118.957031 349.878906 120.171875 Z M 349.878906 120.171875 " fill-opacity="1" fill-rule="nonzero"/><path fill="#f7b094" d="M 309.171875 119.902344 L 324.515625 95.171875 L 318.867188 92.613281 Z M 309.171875 119.902344 " fill-opacity="1" fill-rule="nonzero"/><path fill="#4a4ddc" d="M 272.570312 84.445312 L 283.128906 80.488281 C 287.273438 79.210938 292.035156 79.949219 296.109375 81.445312 L 319.734375 90.125 L 307.390625 125.351562 L 286.792969 117.246094 C 278.566406 114.5 272.964844 106.867188 272.808594 98.195312 Z M 272.570312 84.445312 " fill-opacity="1" fill-rule="nonzero"/><path fill="#ffffff" d="M 307.390625 125.957031 C 307.316406 125.957031 307.242188 125.941406 307.171875 125.914062 L 286.574219 117.808594 C 283.066406 116.640625 279.898438 114.535156 277.441406 111.734375 C 277.21875 111.484375 277.246094 111.101562 277.496094 110.882812 C 277.746094 110.664062 278.125 110.6875 278.34375 110.941406 C 280.660156 113.582031 283.652344 115.566406 286.988281 116.679688 L 307.609375 124.796875 C 307.921875 124.917969 308.074219 125.269531 307.953125 125.578125 C 307.855469 125.8125 307.628906 125.957031 307.390625 125.957031 Z M 307.390625 125.957031 " fill-opacity="1" fill-rule="nonzero"/><path fill="#4a4ddc" d="M 146.308594 115.429688 C 144.8125 98.910156 134.277344 85.453125 122.757812 85.375 C 111.242188 85.300781 103.125 98.632812 104.613281 115.152344 C 106.109375 131.667969 116.660156 145.125 128.179688 145.203125 C 139.6875 145.277344 147.808594 131.945312 146.308594 115.429688 Z M 126.960938 139.855469 C 118.605469 139.605469 110.730469 128.480469 109.375 115.007812 C 108.015625 101.535156 113.695312 90.816406 122.054688 91.066406 C 130.410156 91.320312 138.285156 102.445312 139.640625 115.917969 C 141 129.386719 135.320312 140.109375 126.960938 139.855469 Z M 126.960938 139.855469 " fill-opacity="1" fill-rule="nonzero"/><path fill="#e7ebfb" d="M 126.960938 139.855469 C 118.605469 139.605469 110.730469 128.480469 109.375 115.007812 C 108.015625 101.535156 113.695312 90.816406 122.054688 91.066406 C 130.410156 91.320312 138.285156 102.445312 139.640625 115.917969 C 141 129.386719 135.320312 140.109375 126.960938 139.855469 Z M 126.960938 139.855469 " fill-opacity="0.3" fill-rule="nonzero"/><path fill="#000000" d="M 109.375 115.011719 C 110.726562 128.480469 118.597656 139.605469 126.960938 139.851562 C 128.515625 139.898438 129.972656 139.566406 131.316406 138.894531 C 130.941406 138.941406 130.558594 138.953125 130.171875 138.941406 C 121.808594 138.695312 113.9375 127.566406 112.574219 114.101562 C 111.476562 103.132812 115.027344 93.996094 120.890625 91.113281 C 113.171875 91.835938 108.085938 102.167969 109.375 115.011719 Z M 109.375 115.011719 " fill-opacity="1" fill-rule="nonzero"/><path fill="#4a4ddc" d="M 126.289062 142.03125 L 134.472656 190.605469 C 134.980469 193.601562 137.808594 195.625 140.804688 195.125 C 143.800781 194.617188 145.820312 191.777344 145.324219 188.785156 L 137.132812 140.199219 Z M 126.289062 142.03125 " fill-opacity="1" fill-rule="nonzero"/><path fill="#ffc1a4" d="M 156.417969 157.738281 L 140.074219 145.660156 C 137.582031 143.816406 134.070312 144.347656 132.230469 146.839844 C 130.542969 149.125 130.832031 152.308594 132.902344 154.253906 L 140.746094 161.628906 L 145.324219 188.785156 L 159.421875 188.488281 L 161.675781 158.886719 Z M 156.417969 157.738281 " fill-opacity="1" fill-rule="nonzero"/><path fill="#ffffff" d="M 236.347656 158.308594 C 236.046875 158.308594 235.789062 158.085938 235.753906 157.78125 L 232.300781 129.203125 C 232.261719 128.871094 232.496094 128.570312 232.828125 128.53125 C 233.152344 128.492188 233.457031 128.726562 233.496094 129.058594 L 236.949219 157.632812 C 236.988281 157.964844 236.753906 158.265625 236.421875 158.304688 C 236.398438 158.308594 236.371094 158.308594 236.347656 158.308594 Z M 236.347656 158.308594 " fill-opacity="1" fill-rule="nonzero"/><path fill="#ffffff" d="M 303.320312 115.890625 C 303.269531 115.890625 303.210938 115.882812 303.15625 115.867188 C 302.835938 115.777344 302.648438 115.445312 302.742188 115.125 L 308.59375 94.71875 C 308.6875 94.398438 309.015625 94.210938 309.335938 94.304688 C 309.65625 94.394531 309.84375 94.730469 309.75 95.050781 L 303.898438 115.457031 C 303.824219 115.71875 303.582031 115.890625 303.320312 115.890625 Z M 303.320312 115.890625 " fill-opacity="1" fill-rule="nonzero"/><path fill="#ffffff" d="M 231.894531 148.175781 C 231.789062 148.175781 231.683594 148.148438 231.585938 148.089844 L 211.125 135.835938 C 210.839844 135.667969 210.746094 135.296875 210.917969 135.011719 C 211.085938 134.726562 211.457031 134.632812 211.742188 134.804688 L 232.203125 147.058594 C 232.488281 147.226562 232.582031 147.597656 232.414062 147.882812 C 232.300781 148.074219 232.097656 148.175781 231.894531 148.175781 Z M 231.894531 148.175781 " fill-opacity="1" fill-rule="nonzero"/><path fill="#ffffff" d="M 300.332031 199.355469 C 300.230469 199.355469 300.128906 199.328125 300.035156 199.277344 C 295.910156 196.929688 293.527344 192.019531 294.234375 187.328125 C 294.285156 187 294.59375 186.777344 294.921875 186.824219 C 295.246094 186.875 295.476562 187.179688 295.425781 187.507812 C 294.796875 191.652344 296.988281 196.160156 300.628906 198.230469 C 300.917969 198.394531 301.019531 198.761719 300.855469 199.050781 C 300.746094 199.246094 300.542969 199.355469 300.332031 199.355469 Z M 300.332031 199.355469 " fill-opacity="1" fill-rule="nonzero"/><path fill="#ffffff" d="M 181.160156 305.25 C 181.03125 305.25 180.902344 305.210938 180.792969 305.125 C 180.527344 304.921875 180.480469 304.546875 180.683594 304.28125 L 233.148438 236.300781 C 234.84375 233.984375 236.90625 231.957031 239.269531 230.296875 L 280.207031 201.492188 C 280.480469 201.300781 280.855469 201.367188 281.046875 201.636719 C 281.238281 201.910156 281.171875 202.285156 280.902344 202.476562 L 239.960938 231.277344 C 237.707031 232.867188 235.738281 234.800781 234.109375 237.023438 L 181.636719 305.015625 C 181.519531 305.171875 181.339844 305.25 181.160156 305.25 Z M 181.160156 305.25 " fill-opacity="1" fill-rule="nonzero"/><path fill="#ffffff" d="M 185.195312 319.707031 C 185.058594 319.707031 184.917969 319.660156 184.800781 319.5625 L 168.121094 305.105469 C 167.871094 304.886719 167.84375 304.503906 168.0625 304.253906 C 168.277344 304.003906 168.660156 303.976562 168.910156 304.195312 L 185.589844 318.652344 C 185.839844 318.867188 185.867188 319.25 185.652344 319.5 C 185.53125 319.636719 185.363281 319.707031 185.195312 319.707031 Z M 185.195312 319.707031 " fill-opacity="1" fill-rule="nonzero"/><path fill="#ffc1a4" d="M 123.121094 162.289062 C 127.078125 158.621094 136.382812 155.324219 140.042969 161.082031 C 142.625 165.144531 137.996094 167.324219 137.996094 167.324219 C 137.996094 167.324219 140.925781 167.617188 141.703125 169.925781 C 142.476562 172.261719 139.433594 173.925781 139.433594 173.925781 C 139.433594 173.925781 142.359375 175.875 142.242188 177.707031 C 142.121094 179.535156 139.945312 180.929688 139.945312 180.929688 C 139.945312 180.929688 145.554688 183.382812 142.246094 187.429688 C 139.015625 191.382812 131.546875 190.550781 130.007812 188.753906 C 127.414062 185.746094 131.160156 184.105469 131.160156 184.105469 C 131.160156 184.105469 127.40625 182.753906 127.441406 180.574219 C 127.464844 179.179688 128.328125 178.441406 128.945312 178.089844 L 128.726562 177.507812 C 127.425781 177 124.992188 175.84375 124.15625 174.050781 C 123.25 172.117188 125.21875 170.773438 126.078125 170.300781 L 125.921875 169.902344 C 124.679688 169.398438 121.648438 167.988281 121.210938 166.003906 C 120.96875 164.90625 121.746094 163.5625 123.121094 162.289062 Z M 123.121094 162.289062 " fill-opacity="1" fill-rule="nonzero"/><path fill="#060606" d="M 127.699219 180.015625 C 127.617188 180.015625 127.53125 179.996094 127.449219 179.960938 C 127.148438 179.824219 127.015625 179.46875 127.148438 179.164062 C 127.398438 178.617188 127.765625 178.210938 128.128906 177.914062 C 126.695312 177.3125 124.460938 176.125 123.609375 174.308594 C 123.265625 173.570312 123.226562 172.828125 123.5 172.109375 C 124.113281 170.488281 126.128906 169.597656 126.214844 169.5625 C 126.519531 169.429688 126.871094 169.566406 127.003906 169.871094 C 127.136719 170.175781 126.996094 170.53125 126.695312 170.664062 C 126.242188 170.863281 124.980469 171.589844 124.625 172.539062 C 124.472656 172.945312 124.496094 173.359375 124.703125 173.796875 C 125.734375 176.007812 129.695312 177.214844 129.734375 177.226562 C 129.992188 177.304688 130.167969 177.542969 130.167969 177.808594 C 130.164062 178.074219 129.988281 178.308594 129.730469 178.382812 C 129.722656 178.386719 128.679688 178.703125 128.246094 179.660156 C 128.148438 179.882812 127.925781 180.015625 127.699219 180.015625 Z M 127.699219 180.015625 " fill-opacity="1" fill-rule="nonzero"/><path fill="#060606" d="M 130.011719 189.359375 C 129.84375 189.359375 129.671875 189.285156 129.554688 189.148438 C 128.671875 188.125 128.335938 187.105469 128.558594 186.121094 C 128.941406 184.4375 130.839844 183.589844 130.921875 183.550781 C 131.222656 183.417969 131.578125 183.558594 131.714844 183.863281 C 131.847656 184.167969 131.707031 184.519531 131.402344 184.65625 C 131.390625 184.660156 129.972656 185.304688 129.730469 186.390625 C 129.597656 186.980469 129.84375 187.644531 130.464844 188.363281 C 130.679688 188.617188 130.652344 188.996094 130.402344 189.210938 C 130.289062 189.308594 130.148438 189.359375 130.011719 189.359375 Z M 130.011719 189.359375 " fill-opacity="1" fill-rule="nonzero"/><path fill="#060606" d="M 135.179688 190.855469 C 132.6875 190.855469 130.441406 190.179688 129.554688 189.148438 C 129.339844 188.898438 129.367188 188.515625 129.617188 188.300781 C 129.867188 188.082031 130.25 188.113281 130.46875 188.363281 C 131.027344 189.011719 132.917969 189.675781 135.347656 189.652344 C 138.125 189.613281 140.46875 188.667969 141.789062 187.054688 C 142.550781 186.121094 142.832031 185.226562 142.632812 184.394531 C 142.203125 182.597656 139.738281 181.488281 139.710938 181.476562 C 139.507812 181.390625 139.375 181.195312 139.355469 180.976562 C 139.335938 180.753906 139.445312 180.542969 139.628906 180.421875 C 139.648438 180.410156 141.546875 179.160156 141.644531 177.660156 C 141.726562 176.457031 139.789062 174.882812 139.101562 174.425781 C 138.929688 174.308594 138.828125 174.109375 138.835938 173.898438 C 138.84375 173.6875 138.960938 173.5 139.144531 173.398438 C 139.171875 173.382812 141.738281 171.9375 141.128906 170.113281 C 140.496094 168.214844 137.96875 167.925781 137.941406 167.925781 C 137.675781 167.898438 137.457031 167.695312 137.414062 167.429688 C 137.367188 167.164062 137.503906 166.898438 137.746094 166.785156 C 137.761719 166.777344 139.652344 165.855469 140.125 164.222656 C 140.371094 163.351562 140.175781 162.402344 139.539062 161.402344 C 137.183594 157.699219 132.800781 158.371094 130.398438 159.101562 C 125.722656 160.523438 121.773438 164.074219 121.816406 165.988281 C 121.824219 166.320312 121.558594 166.59375 121.230469 166.605469 C 120.890625 166.609375 120.621094 166.347656 120.613281 166.015625 C 120.550781 163.3125 125.046875 159.46875 130.046875 157.953125 C 134.695312 156.539062 138.523438 157.5625 140.554688 160.757812 C 141.386719 162.066406 141.628906 163.347656 141.277344 164.5625 C 140.953125 165.6875 140.171875 166.527344 139.484375 167.082031 C 140.5 167.457031 141.765625 168.21875 142.269531 169.734375 C 142.925781 171.699219 141.449219 173.210938 140.480469 173.949219 C 141.429688 174.71875 142.949219 176.195312 142.847656 177.742188 C 142.757812 179.085938 141.773438 180.195312 141.050781 180.835938 C 141.992188 181.410156 143.417969 182.519531 143.800781 184.109375 C 144.09375 185.328125 143.730469 186.574219 142.71875 187.816406 C 141.175781 189.703125 138.496094 190.8125 135.367188 190.855469 C 135.300781 190.855469 135.242188 190.855469 135.179688 190.855469 Z M 135.179688 190.855469 " fill-opacity="1" fill-rule="nonzero"/><path fill="#060606" d="M 134.871094 183.136719 C 134.574219 183.136719 134.316406 182.917969 134.277344 182.617188 C 134.230469 182.289062 134.460938 181.984375 134.789062 181.9375 C 136.984375 181.632812 139.726562 180.355469 139.753906 180.34375 C 140.050781 180.203125 140.414062 180.332031 140.554688 180.632812 C 140.695312 180.9375 140.566406 181.292969 140.265625 181.433594 C 140.144531 181.492188 137.332031 182.800781 134.957031 183.132812 C 134.925781 183.132812 134.898438 183.136719 134.871094 183.136719 Z M 134.871094 183.136719 " fill-opacity="1" fill-rule="nonzero"/><path fill="#060606" d="M 132.132812 176.597656 C 131.839844 176.597656 131.585938 176.382812 131.539062 176.082031 C 131.492188 175.753906 131.71875 175.449219 132.046875 175.402344 C 134.375 175.058594 139.1875 173.378906 139.234375 173.359375 C 139.550781 173.25 139.894531 173.414062 140.003906 173.730469 C 140.113281 174.042969 139.945312 174.386719 139.632812 174.496094 C 139.429688 174.566406 134.664062 176.230469 132.222656 176.589844 C 132.195312 176.59375 132.164062 176.597656 132.132812 176.597656 Z M 132.132812 176.597656 " fill-opacity="1" fill-rule="nonzero"/><path fill="#060606" d="M 130.910156 169.710938 C 130.898438 169.710938 130.882812 169.710938 130.867188 169.710938 C 130.535156 169.707031 130.269531 169.4375 130.273438 169.101562 C 130.273438 168.769531 130.523438 168.503906 130.878906 168.507812 C 132.957031 168.519531 137.742188 166.78125 137.792969 166.761719 C 138.105469 166.648438 138.449219 166.808594 138.5625 167.121094 C 138.679688 167.429688 138.519531 167.777344 138.207031 167.890625 C 138.007812 167.96875 133.25 169.710938 130.910156 169.710938 Z M 130.910156 169.710938 " fill-opacity="1" fill-rule="nonzero"/><path fill="#060606" d="M 214.515625 41.910156 C 213.574219 46.234375 213.882812 50.910156 215.898438 54.84375 C 217.917969 58.777344 221.761719 61.859375 226.148438 62.445312 C 228.515625 62.761719 231.074219 62.308594 232.90625 60.773438 C 235.21875 58.835938 235.945312 55.238281 234.566406 52.550781 " fill-opacity="1" fill-rule="nonzero"/><path fill="#ffc1a4" d="M 252.246094 110.957031 C 239.714844 113.605469 238.882812 101.46875 242.816406 95.9375 L 241.800781 89.324219 L 241.023438 84.300781 L 242.191406 82.65625 L 255.09375 64.566406 L 262.839844 95.109375 C 262.839844 95.113281 265.796875 108.097656 252.246094 110.957031 Z M 252.246094 110.957031 " fill-opacity="1" fill-rule="nonzero"/><path fill="#060606" d="M 248.324219 80.769531 C 247.671875 84.484375 244.023438 87.675781 241.796875 89.324219 L 241.019531 84.304688 L 242.191406 82.660156 Z M 248.324219 80.769531 " fill-opacity="1" fill-rule="nonzero"/><path fill="#ffc1a4" d="M 255.734375 66.082031 C 255.734375 66.730469 255.703125 67.375 255.636719 68.015625 C 255.574219 68.660156 255.480469 69.300781 255.355469 69.933594 C 255.226562 70.566406 255.070312 71.191406 254.882812 71.8125 C 254.695312 72.429688 254.476562 73.039062 254.230469 73.636719 C 253.984375 74.234375 253.707031 74.816406 253.402344 75.386719 C 253.097656 75.957031 252.765625 76.511719 252.40625 77.046875 C 252.046875 77.585938 251.664062 78.105469 251.253906 78.601562 C 250.84375 79.101562 250.410156 79.582031 249.953125 80.039062 C 249.496094 80.496094 249.015625 80.929688 248.515625 81.339844 C 248.015625 81.75 247.5 82.132812 246.960938 82.492188 C 246.425781 82.851562 245.871094 83.183594 245.300781 83.488281 C 244.730469 83.792969 244.144531 84.070312 243.550781 84.316406 C 242.953125 84.5625 242.34375 84.78125 241.726562 84.96875 C 241.105469 85.15625 240.480469 85.3125 239.847656 85.441406 C 239.210938 85.566406 238.574219 85.660156 237.929688 85.722656 C 237.289062 85.789062 236.644531 85.820312 235.996094 85.820312 C 235.351562 85.820312 234.703125 85.789062 234.0625 85.722656 C 233.417969 85.660156 232.78125 85.566406 232.144531 85.441406 C 231.511719 85.3125 230.886719 85.15625 230.265625 84.96875 C 229.648438 84.78125 229.039062 84.5625 228.441406 84.316406 C 227.847656 84.070312 227.261719 83.792969 226.691406 83.488281 C 226.121094 83.183594 225.570312 82.851562 225.03125 82.492188 C 224.492188 82.132812 223.976562 81.75 223.476562 81.339844 C 222.976562 80.929688 222.496094 80.496094 222.039062 80.039062 C 221.582031 79.582031 221.148438 79.101562 220.738281 78.601562 C 220.328125 78.105469 219.945312 77.585938 219.585938 77.046875 C 219.226562 76.511719 218.894531 75.957031 218.589844 75.386719 C 218.285156 74.816406 218.007812 74.234375 217.761719 73.636719 C 217.515625 73.039062 217.296875 72.429688 217.109375 71.8125 C 216.921875 71.191406 216.765625 70.566406 216.640625 69.933594 C 216.511719 69.300781 216.417969 68.660156 216.355469 68.015625 C 216.292969 67.375 216.257812 66.730469 216.257812 66.082031 C 216.257812 65.4375 216.292969 64.792969 216.355469 64.148438 C 216.417969 63.503906 216.511719 62.867188 216.640625 62.230469 C 216.765625 61.597656 216.921875 60.972656 217.109375 60.351562 C 217.296875 59.734375 217.515625 59.125 217.761719 58.53125 C 218.007812 57.933594 218.285156 57.347656 218.589844 56.777344 C 218.894531 56.207031 219.226562 55.65625 219.585938 55.117188 C 219.945312 54.578125 220.328125 54.0625 220.738281 53.5625 C 221.148438 53.0625 221.582031 52.582031 222.039062 52.125 C 222.496094 51.667969 222.976562 51.234375 223.476562 50.824219 C 223.976562 50.414062 224.492188 50.03125 225.03125 49.671875 C 225.570312 49.3125 226.121094 48.980469 226.691406 48.675781 C 227.261719 48.371094 227.847656 48.09375 228.441406 47.847656 C 229.039062 47.601562 229.648438 47.382812 230.265625 47.195312 C 230.886719 47.007812 231.511719 46.851562 232.144531 46.726562 C 232.78125 46.597656 233.417969 46.503906 234.0625 46.441406 C 234.703125 46.378906 235.351562 46.34375 235.996094 46.34375 C 236.644531 46.34375 237.289062 46.378906 237.929688 46.441406 C 238.574219 46.503906 239.210938 46.597656 239.847656 46.726562 C 240.480469 46.851562 241.105469 47.007812 241.726562 47.195312 C 242.34375 47.382812 242.953125 47.601562 243.550781 47.847656 C 244.144531 48.09375 244.730469 48.371094 245.300781 48.675781 C 245.871094 48.980469 246.425781 49.3125 246.960938 49.671875 C 247.5 50.03125 248.015625 50.414062 248.515625 50.824219 C 249.015625 51.234375 249.496094 51.667969 249.953125 52.125 C 250.410156 52.582031 250.84375 53.0625 251.253906 53.5625 C 251.664062 54.0625 252.046875 54.578125 252.40625 55.117188 C 252.765625 55.65625 253.097656 56.207031 253.402344 56.777344 C 253.707031 57.347656 253.984375 57.933594 254.230469 58.53125 C 254.476562 59.125 254.695312 59.734375 254.882812 60.351562 C 255.070312 60.972656 255.226562 61.597656 255.355469 62.230469 C 255.480469 62.867188 255.574219 63.503906 255.636719 64.148438 C 255.703125 64.792969 255.734375 65.4375 255.734375 66.082031 Z M 255.734375 66.082031 " fill-opacity="1" fill-rule="nonzero"/><path fill="#060606" d="M 235.132812 65.875 C 235.136719 67.105469 234.445312 68.109375 233.597656 68.117188 C 232.742188 68.121094 232.035156 67.128906 232.023438 65.90625 C 232.015625 64.667969 232.703125 63.664062 233.558594 63.664062 C 234.410156 63.652344 235.113281 64.640625 235.132812 65.875 Z M 235.132812 65.875 " fill-opacity="1" fill-rule="nonzero"/><path fill="#060606" d="M 224.976562 66.066406 C 224.980469 67.296875 224.292969 68.300781 223.441406 68.308594 C 222.585938 68.3125 221.882812 67.320312 221.871094 66.097656 C 221.863281 64.859375 222.550781 63.855469 223.40625 63.855469 C 224.253906 63.84375 224.960938 64.835938 224.976562 66.066406 Z M 224.976562 66.066406 " fill-opacity="1" fill-rule="nonzero"/><path fill="#060606" d="M 257.753906 75.425781 C 256.597656 75.285156 255.121094 58.363281 251.210938 61.179688 C 246.855469 64.320312 252.457031 63.875 252.457031 63.875 L 247.210938 65.332031 L 243.507812 58.914062 C 243.507812 58.914062 234.296875 62.917969 228.222656 53.417969 C 228.222656 53.417969 217.90625 57.023438 214.777344 45.4375 C 211.652344 33.851562 222.667969 30.371094 232.308594 29.640625 C 237.160156 29.273438 239.75 32.265625 241.125 35.332031 C 242.644531 34.550781 251.558594 30.96875 258.628906 36.566406 C 266.382812 42.707031 274.210938 67.910156 257.753906 75.425781 Z M 257.753906 75.425781 " fill-opacity="1" fill-rule="nonzero"/><path fill="#ffc1a4" d="M 259.816406 61.144531 C 259.816406 61.503906 259.78125 61.855469 259.710938 62.203125 C 259.640625 62.550781 259.539062 62.890625 259.402344 63.21875 C 259.265625 63.546875 259.097656 63.859375 258.902344 64.15625 C 258.703125 64.453125 258.480469 64.726562 258.226562 64.976562 C 257.976562 65.230469 257.703125 65.453125 257.40625 65.652344 C 257.109375 65.847656 256.800781 66.015625 256.46875 66.152344 C 256.140625 66.289062 255.804688 66.390625 255.453125 66.460938 C 255.105469 66.53125 254.753906 66.5625 254.398438 66.5625 C 254.042969 66.5625 253.6875 66.53125 253.339844 66.460938 C 252.992188 66.390625 252.652344 66.289062 252.324219 66.152344 C 251.996094 66.015625 251.683594 65.847656 251.386719 65.652344 C 251.089844 65.453125 250.816406 65.230469 250.566406 64.976562 C 250.316406 64.726562 250.089844 64.453125 249.890625 64.15625 C 249.695312 63.859375 249.527344 63.546875 249.390625 63.21875 C 249.253906 62.890625 249.152344 62.550781 249.082031 62.203125 C 249.015625 61.855469 248.980469 61.503906 248.980469 61.144531 C 248.980469 60.789062 249.015625 60.4375 249.082031 60.089844 C 249.152344 59.742188 249.253906 59.402344 249.390625 59.074219 C 249.527344 58.746094 249.695312 58.433594 249.890625 58.136719 C 250.089844 57.839844 250.316406 57.566406 250.566406 57.316406 C 250.816406 57.0625 251.089844 56.839844 251.386719 56.640625 C 251.683594 56.445312 251.996094 56.277344 252.324219 56.140625 C 252.652344 56.003906 252.992188 55.902344 253.339844 55.832031 C 253.6875 55.761719 254.042969 55.730469 254.398438 55.730469 C 254.753906 55.730469 255.105469 55.761719 255.453125 55.832031 C 255.804688 55.902344 256.140625 56.003906 256.46875 56.140625 C 256.800781 56.277344 257.109375 56.445312 257.40625 56.640625 C 257.703125 56.839844 257.976562 57.0625 258.226562 57.316406 C 258.480469 57.566406 258.703125 57.839844 258.902344 58.136719 C 259.097656 58.433594 259.265625 58.746094 259.402344 59.074219 C 259.539062 59.402344 259.640625 59.742188 259.710938 60.089844 C 259.78125 60.4375 259.816406 60.789062 259.816406 61.144531 Z M 259.816406 61.144531 " fill-opacity="1" fill-rule="nonzero"/><path fill="#060606" d="M 228.484375 77.230469 C 227.945312 77.230469 227.339844 77.222656 226.757812 77.054688 C 226.027344 76.839844 225.457031 76.386719 225.1875 75.804688 C 224.714844 74.777344 225.230469 73.667969 225.613281 72.859375 C 226.441406 71.089844 227.089844 69.222656 227.542969 67.316406 C 227.605469 67.058594 227.863281 66.898438 228.125 66.960938 C 228.382812 67.023438 228.542969 67.28125 228.480469 67.542969 C 228.011719 69.511719 227.339844 71.4375 226.484375 73.269531 C 226.097656 74.09375 225.796875 74.828125 226.0625 75.402344 C 226.214844 75.730469 226.566406 75.996094 227.027344 76.132812 C 227.496094 76.269531 228.003906 76.269531 228.535156 76.269531 C 228.800781 76.269531 229.019531 76.484375 229.019531 76.75 C 229.015625 77.03125 228.769531 77.230469 228.484375 77.230469 Z M 228.484375 77.230469 " fill-opacity="1" fill-rule="nonzero"/><path fill="#ffffff" d="M 239.203125 56.320312 C 238.085938 56.320312 236.949219 56.203125 235.847656 55.839844 C 233.84375 55.183594 232.351562 53.765625 231.851562 52.050781 C 231.757812 51.734375 231.941406 51.398438 232.257812 51.304688 C 232.582031 51.214844 232.914062 51.394531 233.003906 51.714844 C 233.386719 53.03125 234.621094 54.175781 236.222656 54.699219 C 237.785156 55.210938 239.480469 55.160156 241.082031 55.023438 C 241.425781 55 241.707031 55.242188 241.734375 55.574219 C 241.757812 55.90625 241.515625 56.195312 241.183594 56.226562 C 240.535156 56.277344 239.871094 56.320312 239.203125 56.320312 Z M 239.203125 56.320312 " fill-opacity="1" fill-rule="nonzero"/><path fill="#ffffff" d="M 223.617188 51.144531 C 221.742188 51.144531 220.125 49.792969 219.296875 48.347656 C 218.363281 46.710938 218.128906 44.796875 217.917969 43.109375 C 217.878906 42.78125 218.113281 42.480469 218.441406 42.4375 C 218.785156 42.398438 219.074219 42.632812 219.113281 42.960938 C 219.320312 44.613281 219.53125 46.320312 220.34375 47.746094 C 221.023438 48.9375 222.453125 50.125 223.988281 49.914062 C 224.320312 49.867188 224.621094 50.097656 224.667969 50.425781 C 224.710938 50.757812 224.480469 51.058594 224.152344 51.105469 C 223.972656 51.132812 223.792969 51.144531 223.617188 51.144531 Z M 223.617188 51.144531 " fill-opacity="1" fill-rule="nonzero"/><path fill="#ffffff" d="M 260.34375 49.804688 C 260.042969 49.804688 259.785156 49.582031 259.746094 49.277344 C 259.417969 46.710938 257.980469 44.261719 255.894531 42.726562 C 255.625 42.527344 255.570312 42.152344 255.765625 41.882812 C 255.960938 41.617188 256.339844 41.558594 256.605469 41.757812 C 258.953125 43.484375 260.574219 46.238281 260.941406 49.125 C 260.980469 49.457031 260.746094 49.757812 260.417969 49.800781 C 260.394531 49.804688 260.367188 49.804688 260.34375 49.804688 Z M 260.34375 49.804688 " fill-opacity="1" fill-rule="nonzero"/><path fill="#060606" d="M 240.449219 77.160156 C 240.449219 77.472656 240.390625 77.773438 240.269531 78.0625 C 240.148438 78.351562 239.980469 78.605469 239.757812 78.828125 C 239.539062 79.046875 239.285156 79.21875 238.996094 79.335938 C 238.707031 79.457031 238.40625 79.515625 238.09375 79.515625 C 237.78125 79.515625 237.480469 79.457031 237.191406 79.335938 C 236.902344 79.21875 236.648438 79.046875 236.429688 78.828125 C 236.207031 78.605469 236.039062 78.351562 235.917969 78.0625 C 235.796875 77.773438 235.738281 77.472656 235.738281 77.160156 C 235.738281 76.847656 235.796875 76.546875 235.917969 76.261719 C 236.039062 75.972656 236.207031 75.71875 236.429688 75.496094 C 236.648438 75.273438 236.902344 75.105469 237.191406 74.984375 C 237.480469 74.867188 237.78125 74.804688 238.09375 74.804688 C 238.40625 74.804688 238.707031 74.867188 238.996094 74.984375 C 239.285156 75.105469 239.539062 75.273438 239.757812 75.496094 C 239.980469 75.71875 240.148438 75.972656 240.269531 76.261719 C 240.390625 76.546875 240.449219 76.847656 240.449219 77.160156 Z M 240.449219 77.160156 " fill-opacity="1" fill-rule="nonzero"/><path fill="#060f11" d="M 270.855469 189.632812 C 269.945312 189.632812 269.054688 189.375 268.480469 188.789062 C 267.640625 187.941406 267.613281 186.9375 267.871094 186.050781 C 267.390625 186.25 266.84375 186.378906 266.335938 186.371094 C 265.554688 186.351562 264.882812 186.03125 264.332031 185.425781 C 263.222656 184.199219 263.445312 182.773438 263.976562 181.628906 C 263.171875 181.929688 262.25 182.125 261.359375 181.984375 C 260.441406 181.835938 259.691406 181.355469 259.136719 180.554688 C 257.875 178.734375 258.40625 176.878906 259.1875 175.574219 C 257.675781 175.765625 255.820312 175.371094 254.339844 173.378906 C 252.410156 170.78125 259.09375 164.476562 262.671875 161.398438 L 258.15625 161.464844 C 258.113281 161.464844 258.070312 161.460938 258.027344 161.453125 C 256.210938 161.09375 254.902344 159.484375 254.917969 157.628906 C 254.929688 156.5 255.433594 155.433594 256.300781 154.707031 C 256.949219 154.160156 257.75 153.851562 258.613281 153.8125 L 274.96875 150.742188 C 275.296875 150.683594 275.609375 150.898438 275.671875 151.222656 C 275.730469 151.550781 275.515625 151.863281 275.191406 151.925781 L 258.792969 155 C 258.761719 155.007812 258.734375 155.011719 258.703125 155.011719 C 258.09375 155.035156 257.53125 155.246094 257.074219 155.628906 C 256.476562 156.128906 256.132812 156.863281 256.125 157.640625 C 256.113281 158.898438 256.984375 159.992188 258.207031 160.261719 L 264.34375 160.171875 C 264.605469 160.175781 264.828125 160.324219 264.914062 160.566406 C 265.003906 160.804688 264.929688 161.074219 264.734375 161.238281 C 259.386719 165.636719 254.261719 171.257812 255.304688 172.660156 C 257.554688 175.6875 260.539062 173.902344 260.664062 173.828125 C 260.941406 173.660156 261.296875 173.734375 261.480469 174.003906 C 261.660156 174.269531 261.597656 174.632812 261.339844 174.824219 C 261.308594 174.847656 258.429688 177.425781 260.128906 179.871094 C 260.496094 180.398438 260.960938 180.699219 261.550781 180.796875 C 263.3125 181.078125 265.511719 179.457031 265.53125 179.441406 C 265.785156 179.253906 266.140625 179.289062 266.347656 179.53125 C 266.550781 179.769531 266.539062 180.125 266.316406 180.347656 C 266.292969 180.375 263.738281 182.976562 265.226562 184.617188 C 265.550781 184.976562 265.925781 185.15625 266.363281 185.167969 C 267.5 185.199219 268.800781 184.132812 269.214844 183.722656 C 269.445312 183.492188 269.816406 183.484375 270.054688 183.710938 C 270.289062 183.9375 270.304688 184.308594 270.085938 184.550781 C 270.066406 184.574219 268.140625 186.734375 269.339844 187.949219 C 270.050781 188.667969 271.792969 188.542969 272.667969 187.9375 C 273.53125 187.339844 283.078125 178.929688 286.683594 175.738281 C 286.933594 175.519531 287.3125 175.542969 287.535156 175.789062 C 287.753906 176.039062 287.730469 176.417969 287.480469 176.640625 C 286.949219 177.109375 274.449219 188.164062 273.351562 188.925781 C 272.695312 189.375 271.769531 189.632812 270.855469 189.632812 Z M 270.855469 189.632812 " fill-opacity="1" fill-rule="nonzero"/><path fill="#060f11" d="M 269.636719 184.746094 C 269.476562 184.746094 269.316406 184.683594 269.199219 184.558594 C 268.972656 184.316406 268.984375 183.933594 269.226562 183.707031 L 276.1875 177.167969 C 276.429688 176.941406 276.808594 176.953125 277.035156 177.195312 C 277.265625 177.4375 277.253906 177.816406 277.011719 178.042969 L 270.050781 184.582031 C 269.933594 184.691406 269.785156 184.746094 269.636719 184.746094 Z M 269.636719 184.746094 " fill-opacity="1" fill-rule="nonzero"/><path fill="#060f11" d="M 265.890625 180.523438 C 265.71875 180.523438 265.546875 180.449219 265.429688 180.308594 C 265.214844 180.054688 265.25 179.675781 265.503906 179.460938 L 272.929688 173.234375 C 273.179688 173.019531 273.5625 173.054688 273.777344 173.308594 C 273.992188 173.5625 273.957031 173.945312 273.703125 174.15625 L 266.277344 180.382812 C 266.164062 180.476562 266.027344 180.523438 265.890625 180.523438 Z M 265.890625 180.523438 " fill-opacity="1" fill-rule="nonzero"/><path fill="#060f11" d="M 260.980469 174.941406 C 260.808594 174.941406 260.636719 174.867188 260.519531 174.726562 C 260.304688 174.472656 260.335938 174.09375 260.59375 173.878906 L 268.152344 167.539062 C 268.40625 167.324219 268.785156 167.355469 269 167.613281 C 269.210938 167.867188 269.179688 168.246094 268.925781 168.460938 L 261.367188 174.800781 C 261.253906 174.894531 261.113281 174.941406 260.980469 174.941406 Z M 260.980469 174.941406 " fill-opacity="1" fill-rule="nonzero"/><path fill="#ffd400" d="M 173.464844 126 C 172.765625 126.800781 172.117188 127.417969 171.515625 127.855469 C 170.910156 128.292969 170.304688 128.539062 169.695312 128.589844 C 169.082031 128.640625 168.441406 128.507812 167.777344 128.1875 C 167.113281 127.867188 166.390625 127.367188 165.609375 126.6875 C 164.785156 125.976562 164.175781 125.316406 163.777344 124.710938 C 163.375 124.105469 163.15625 123.496094 163.125 122.882812 C 163.089844 122.269531 163.246094 121.636719 163.59375 120.976562 C 163.941406 120.320312 164.464844 119.589844 165.164062 118.789062 C 165.875 117.96875 166.539062 117.332031 167.148438 116.886719 C 167.757812 116.441406 168.375 116.1875 168.996094 116.125 C 169.613281 116.0625 170.253906 116.1875 170.90625 116.5 C 171.5625 116.8125 172.300781 117.324219 173.125 118.039062 C 173.90625 118.714844 174.503906 119.363281 174.914062 119.976562 C 175.324219 120.589844 175.539062 121.210938 175.566406 121.832031 C 175.589844 122.453125 175.425781 123.097656 175.070312 123.765625 C 174.710938 124.429688 174.179688 125.175781 173.464844 126 Z M 203.980469 108.402344 C 202.585938 110.007812 201.097656 111.253906 199.519531 112.144531 C 197.9375 113.035156 196.324219 113.589844 194.679688 113.808594 C 193.035156 114.023438 191.382812 113.910156 189.726562 113.46875 C 188.070312 113.023438 186.46875 112.269531 184.925781 111.203125 L 179.722656 116.714844 C 179.398438 117.050781 178.890625 117.070312 178.199219 116.78125 C 177.507812 116.488281 176.65625 115.90625 175.636719 115.019531 C 174.992188 114.460938 174.460938 113.976562 174.046875 113.5625 C 173.632812 113.152344 173.332031 112.796875 173.144531 112.496094 C 172.960938 112.199219 172.867188 111.929688 172.871094 111.691406 C 172.871094 111.453125 172.957031 111.21875 173.125 110.984375 L 178.871094 103.835938 C 179.394531 103.191406 179.867188 102.710938 180.285156 102.386719 C 180.703125 102.0625 181.117188 101.875 181.527344 101.816406 C 181.933594 101.757812 182.335938 101.824219 182.726562 102.007812 C 183.113281 102.191406 183.523438 102.46875 183.957031 102.84375 L 184.367188 103.199219 C 185.402344 104.101562 186.4375 104.710938 187.480469 105.03125 C 188.523438 105.355469 189.523438 105.453125 190.492188 105.332031 C 191.453125 105.207031 192.371094 104.871094 193.242188 104.324219 C 194.113281 103.777344 194.914062 103.085938 195.644531 102.242188 C 196.457031 101.304688 197.074219 100.328125 197.488281 99.316406 C 197.90625 98.308594 198.089844 97.285156 198.046875 96.25 C 198 95.214844 197.703125 94.195312 197.15625 93.1875 C 196.605469 92.179688 195.785156 91.199219 194.691406 90.25 C 193.691406 89.382812 192.730469 88.71875 191.796875 88.25 C 190.863281 87.78125 190.019531 87.429688 189.269531 87.1875 C 188.519531 86.949219 187.878906 86.765625 187.347656 86.648438 C 186.816406 86.53125 186.453125 86.386719 186.257812 86.214844 C 186.117188 86.09375 186.03125 85.941406 185.988281 85.75 C 185.949219 85.5625 185.992188 85.3125 186.117188 85.011719 C 186.242188 84.710938 186.46875 84.324219 186.792969 83.851562 C 187.117188 83.378906 187.566406 82.808594 188.144531 82.144531 C 188.742188 81.460938 189.203125 80.988281 189.53125 80.726562 C 189.863281 80.464844 190.210938 80.320312 190.578125 80.292969 C 190.941406 80.269531 191.511719 80.363281 192.289062 80.574219 C 193.066406 80.785156 193.933594 81.109375 194.894531 81.546875 C 195.851562 81.984375 196.867188 82.53125 197.941406 83.191406 C 199.015625 83.851562 200.0625 84.621094 201.078125 85.503906 C 203.382812 87.507812 205.082031 89.539062 206.175781 91.605469 C 207.265625 93.664062 207.863281 95.6875 207.976562 97.671875 C 208.089844 99.65625 207.789062 101.558594 207.070312 103.371094 C 206.351562 105.179688 205.320312 106.859375 203.980469 108.402344 Z M 203.980469 108.402344 " fill-opacity="1" fill-rule="nonzero"/><path fill="#ff452d" d="M 51.671875 143.480469 C 53.714844 142.898438 55.644531 142.664062 57.453125 142.78125 C 59.265625 142.898438 60.917969 143.3125 62.417969 144.03125 C 63.914062 144.75 65.234375 145.746094 66.382812 147.019531 C 67.527344 148.292969 68.457031 149.800781 69.167969 151.535156 L 76.535156 149.753906 C 76.992188 149.652344 77.429688 149.910156 77.847656 150.53125 C 78.269531 151.152344 78.664062 152.109375 79.03125 153.40625 C 79.269531 154.226562 79.445312 154.921875 79.570312 155.496094 C 79.691406 156.0625 79.75 156.527344 79.742188 156.878906 C 79.738281 157.230469 79.667969 157.503906 79.535156 157.703125 C 79.40625 157.902344 79.207031 158.054688 78.9375 158.15625 L 70.21875 161.011719 C 69.429688 161.265625 68.769531 161.410156 68.242188 161.453125 C 67.714844 161.496094 67.265625 161.429688 66.890625 161.257812 C 66.519531 161.078125 66.21875 160.808594 65.992188 160.441406 C 65.765625 160.074219 65.574219 159.617188 65.417969 159.070312 L 65.269531 158.546875 C 64.894531 157.230469 64.359375 156.148438 63.660156 155.3125 C 62.960938 154.472656 62.175781 153.84375 61.300781 153.421875 C 60.425781 152.996094 59.472656 152.777344 58.445312 152.757812 C 57.417969 152.742188 56.367188 152.886719 55.296875 153.195312 C 54.101562 153.535156 53.054688 154.015625 52.152344 154.636719 C 51.253906 155.257812 50.539062 156.015625 50.011719 156.90625 C 49.488281 157.796875 49.179688 158.816406 49.085938 159.957031 C 48.996094 161.101562 49.148438 162.371094 49.546875 163.765625 C 49.910156 165.035156 50.355469 166.121094 50.882812 167.019531 C 51.410156 167.917969 51.921875 168.675781 52.417969 169.289062 C 52.917969 169.902344 53.355469 170.402344 53.738281 170.792969 C 54.117188 171.179688 54.34375 171.5 54.414062 171.75 C 54.464844 171.921875 54.453125 172.101562 54.386719 172.285156 C 54.316406 172.464844 54.148438 172.648438 53.875 172.832031 C 53.605469 173.019531 53.203125 173.21875 52.675781 173.4375 C 52.144531 173.65625 51.457031 173.886719 50.609375 174.128906 C 49.738281 174.378906 49.09375 174.519531 48.671875 174.558594 C 48.253906 174.597656 47.882812 174.527344 47.5625 174.351562 C 47.242188 174.175781 46.8125 173.785156 46.277344 173.183594 C 45.742188 172.582031 45.191406 171.835938 44.628906 170.945312 C 44.0625 170.058594 43.511719 169.042969 42.972656 167.90625 C 42.429688 166.765625 41.976562 165.550781 41.605469 164.253906 C 40.765625 161.316406 40.453125 158.6875 40.664062 156.359375 C 40.878906 154.039062 41.476562 152.015625 42.464844 150.292969 C 43.453125 148.570312 44.746094 147.144531 46.335938 146.015625 C 47.925781 144.886719 49.707031 144.042969 51.671875 143.480469 Z M 86.84375 145.398438 C 87.863281 145.105469 88.746094 144.941406 89.492188 144.902344 C 90.234375 144.867188 90.875 144.992188 91.417969 145.28125 C 91.957031 145.574219 92.421875 146.035156 92.800781 146.664062 C 93.1875 147.296875 93.519531 148.109375 93.804688 149.105469 C 94.101562 150.152344 94.253906 151.039062 94.257812 151.765625 C 94.265625 152.488281 94.113281 153.117188 93.808594 153.648438 C 93.5 154.179688 93.023438 154.628906 92.371094 154.988281 C 91.71875 155.347656 90.882812 155.675781 89.863281 155.96875 C 88.816406 156.269531 87.917969 156.4375 87.160156 156.476562 C 86.40625 156.519531 85.75 156.394531 85.199219 156.109375 C 84.644531 155.820312 84.179688 155.371094 83.800781 154.75 C 83.421875 154.132812 83.082031 153.296875 82.785156 152.253906 C 82.5 151.257812 82.351562 150.390625 82.34375 149.652344 C 82.332031 148.914062 82.488281 148.277344 82.808594 147.742188 C 83.125 147.207031 83.617188 146.757812 84.277344 146.390625 C 84.945312 146.027344 85.800781 145.695312 86.84375 145.398438 Z M 86.84375 145.398438 " fill-opacity="1" fill-rule="nonzero"/><path fill="#ffffff" d="M 313.289062 70.988281 L 282.371094 47.667969 C 273.84375 41.230469 275.785156 27.914062 285.796875 24.183594 L 319.535156 11.613281 C 328.804688 8.160156 338.527344 15.492188 337.75 25.355469 L 334.925781 61.25 C 334.089844 71.898438 321.816406 77.425781 313.289062 70.988281 Z M 313.289062 70.988281 " fill-opacity="1" fill-rule="nonzero"/><path fill="#060f11" d="M 321.394531 74.347656 C 318.398438 74.347656 315.449219 73.375 312.925781 71.472656 L 282.007812 48.148438 C 277.824219 44.992188 275.78125 40.011719 276.535156 34.824219 C 277.292969 29.640625 280.675781 25.453125 285.585938 23.621094 L 319.324219 11.050781 C 323.875 9.355469 328.902344 10.089844 332.773438 13.011719 C 336.648438 15.933594 338.730469 20.566406 338.351562 25.402344 L 335.527344 61.296875 C 335.117188 66.519531 332.019531 70.925781 327.242188 73.078125 C 325.34375 73.929688 323.359375 74.347656 321.394531 74.347656 Z M 313.652344 70.507812 C 317.476562 73.398438 322.371094 73.945312 326.746094 71.976562 C 331.117188 70.011719 333.953125 65.980469 334.328125 61.203125 L 337.152344 25.308594 C 337.5 20.882812 335.59375 16.644531 332.050781 13.972656 C 328.503906 11.296875 323.90625 10.628906 319.75 12.175781 L 286.011719 24.746094 C 281.515625 26.421875 278.421875 30.253906 277.726562 34.996094 C 277.035156 39.742188 278.910156 44.296875 282.734375 47.183594 Z M 313.652344 70.507812 " fill-opacity="1" fill-rule="nonzero"/><path fill="#ff452d" d="M 324.5625 32.65625 C 324.417969 32.839844 324.261719 33.011719 324.089844 33.183594 L 313.910156 43.234375 C 312.625 44.503906 310.597656 44.621094 309.171875 43.507812 C 307.746094 42.394531 307.375 40.398438 308.296875 38.84375 L 315.59375 26.539062 C 317.269531 23.722656 321.035156 23.011719 323.621094 25.03125 C 326.015625 26.902344 326.382812 30.332031 324.5625 32.65625 Z M 324.5625 32.65625 " fill-opacity="1" fill-rule="nonzero"/><path fill="#ff452d" d="M 309.394531 48.179688 C 309.394531 48.675781 309.296875 49.152344 309.109375 49.609375 C 308.921875 50.066406 308.648438 50.46875 308.300781 50.820312 C 307.949219 51.167969 307.546875 51.4375 307.089844 51.628906 C 306.632812 51.816406 306.15625 51.910156 305.664062 51.910156 C 305.167969 51.910156 304.691406 51.816406 304.234375 51.628906 C 303.777344 51.4375 303.375 51.167969 303.023438 50.820312 C 302.675781 50.46875 302.40625 50.066406 302.214844 49.609375 C 302.027344 49.152344 301.933594 48.675781 301.933594 48.179688 C 301.933594 47.6875 302.027344 47.210938 302.214844 46.753906 C 302.40625 46.296875 302.675781 45.894531 303.023438 45.542969 C 303.375 45.195312 303.777344 44.925781 304.234375 44.734375 C 304.691406 44.546875 305.167969 44.449219 305.664062 44.449219 C 306.15625 44.449219 306.632812 44.546875 307.089844 44.734375 C 307.546875 44.925781 307.949219 45.195312 308.300781 45.542969 C 308.648438 45.894531 308.921875 46.296875 309.109375 46.753906 C 309.296875 47.210938 309.394531 47.6875 309.394531 48.179688 Z M 309.394531 48.179688 " fill-opacity="1" fill-rule="nonzero"/><path fill="#ffffff" d="M 109.960938 309.730469 C 109.960938 309.730469 112.3125 302.277344 109.097656 300.160156 C 105.878906 298.042969 100.15625 300.160156 100.15625 300.160156 C 100.15625 300.160156 104.625 294.433594 103.449219 289.808594 C 102.273438 285.179688 98.117188 282.824219 93.800781 287.6875 C 93.800781 287.6875 104.417969 270.109375 101.175781 263.449219 C 95.292969 251.367188 79.445312 268.3125 77.640625 283.730469 C 77.640625 283.730469 73.011719 252.621094 65.011719 253.328125 C 57.007812 254.035156 61.953125 274.511719 63.675781 278.980469 C 63.675781 278.980469 53.714844 264.46875 46.890625 269.253906 C 40.066406 274.039062 47.988281 301.652344 66.109375 309.730469 " fill-opacity="1" fill-rule="nonzero"/><path fill="#060f11" d="M 66.109375 310.332031 C 66.027344 310.332031 65.945312 310.316406 65.867188 310.28125 C 52.308594 304.234375 44.902344 287.929688 43.972656 278.28125 C 43.523438 273.621094 44.4375 270.238281 46.546875 268.761719 C 47.898438 267.8125 49.457031 267.488281 51.171875 267.796875 C 55.363281 268.554688 59.636719 272.964844 62.09375 275.925781 C 60.515625 270.105469 58.582031 259.53125 61.4375 254.953125 C 62.273438 253.609375 63.457031 252.863281 64.960938 252.730469 C 71.894531 252.121094 76.171875 271.804688 77.671875 280.21875 C 80.128906 270.152344 87.859375 259.960938 94.425781 258.847656 C 96.605469 258.476562 99.640625 258.925781 101.71875 263.183594 C 104.285156 268.457031 98.820312 279.808594 95.9375 285.144531 C 97.191406 284.449219 98.460938 284.230469 99.664062 284.523438 C 101.707031 285.019531 103.34375 286.941406 104.035156 289.660156 C 104.914062 293.121094 102.910156 297.042969 101.617188 299.105469 C 103.648438 298.609375 107.089844 298.117188 109.433594 299.660156 C 112.988281 302 110.640625 309.589844 110.535156 309.914062 C 110.4375 310.230469 110.101562 310.40625 109.78125 310.304688 C 109.464844 310.203125 109.289062 309.867188 109.390625 309.550781 C 110.003906 307.597656 111.09375 302.195312 108.769531 300.664062 C 105.851562 298.742188 100.421875 300.707031 100.367188 300.726562 C 100.113281 300.820312 99.832031 300.734375 99.671875 300.515625 C 99.515625 300.300781 99.519531 300.003906 99.683594 299.792969 C 99.726562 299.734375 103.957031 294.238281 102.871094 289.957031 C 102.289062 287.675781 100.984375 286.082031 99.378906 285.691406 C 97.761719 285.300781 95.992188 286.128906 94.253906 288.085938 C 94.046875 288.320312 93.699219 288.359375 93.445312 288.171875 C 93.195312 287.988281 93.128906 287.644531 93.289062 287.378906 C 93.394531 287.203125 103.699219 270.003906 100.636719 263.714844 C 99.234375 260.832031 97.210938 259.59375 94.628906 260.035156 C 87.753906 261.203125 79.484375 273.199219 78.242188 283.804688 C 78.207031 284.105469 77.957031 284.332031 77.65625 284.335938 C 77.363281 284.332031 77.09375 284.121094 77.050781 283.824219 C 75.789062 275.328125 71.140625 253.402344 65.070312 253.933594 C 63.949219 254.03125 63.097656 254.574219 62.460938 255.59375 C 59.371094 260.554688 62.75 274.894531 64.246094 278.769531 C 64.355469 279.054688 64.234375 279.375 63.964844 279.515625 C 63.691406 279.660156 63.359375 279.578125 63.1875 279.324219 C 63.121094 279.234375 56.742188 270.03125 50.960938 268.988281 C 49.554688 268.730469 48.335938 268.984375 47.242188 269.75 C 45.527344 270.953125 44.773438 274.019531 45.175781 278.171875 C 46.074219 287.53125 53.246094 303.339844 66.359375 309.1875 C 66.660156 309.324219 66.796875 309.679688 66.664062 309.984375 C 66.558594 310.199219 66.339844 310.332031 66.109375 310.332031 Z M 66.109375 310.332031 " fill-opacity="1" fill-rule="nonzero"/><path fill="#060f11" d="M 80.882812 303.351562 C 80.554688 303.351562 80.285156 303.082031 80.28125 302.753906 C 80.226562 295.738281 82.078125 288.828125 85.640625 282.78125 C 85.808594 282.496094 86.175781 282.398438 86.464844 282.566406 C 86.75 282.734375 86.84375 283.105469 86.675781 283.390625 C 83.226562 289.253906 81.429688 295.945312 81.484375 302.746094 C 81.488281 303.078125 81.21875 303.347656 80.886719 303.351562 C 80.886719 303.351562 80.886719 303.351562 80.882812 303.351562 Z M 80.882812 303.351562 " fill-opacity="1" fill-rule="nonzero"/><path fill="#060f11" d="M 75.894531 299.773438 C 75.644531 299.773438 75.40625 299.613281 75.324219 299.363281 L 69.273438 281.089844 C 69.167969 280.773438 69.339844 280.433594 69.652344 280.328125 C 69.96875 280.222656 70.308594 280.394531 70.414062 280.707031 L 76.464844 298.980469 C 76.570312 299.296875 76.398438 299.636719 76.082031 299.742188 C 76.019531 299.765625 75.957031 299.773438 75.894531 299.773438 Z M 75.894531 299.773438 " fill-opacity="1" fill-rule="nonzero"/><path fill="#060f11" d="M 67.734375 303.46875 C 67.539062 303.46875 67.347656 303.375 67.230469 303.199219 C 64.605469 299.171875 62.402344 294.855469 60.683594 290.363281 C 60.5625 290.054688 60.71875 289.703125 61.03125 289.585938 C 61.339844 289.464844 61.6875 289.621094 61.808594 289.933594 C 63.496094 294.34375 65.660156 298.585938 68.238281 302.539062 C 68.417969 302.820312 68.34375 303.191406 68.0625 303.375 C 67.960938 303.441406 67.847656 303.46875 67.734375 303.46875 Z M 67.734375 303.46875 " fill-opacity="1" fill-rule="nonzero"/><path fill="#060f11" d="M 85.832031 303.945312 C 85.746094 303.945312 85.660156 303.929688 85.582031 303.890625 C 85.277344 303.75 85.148438 303.394531 85.285156 303.09375 L 89.804688 293.273438 C 89.945312 292.96875 90.300781 292.839844 90.601562 292.976562 C 90.90625 293.117188 91.035156 293.472656 90.898438 293.777344 L 86.378906 303.597656 C 86.277344 303.816406 86.058594 303.945312 85.832031 303.945312 Z M 85.832031 303.945312 " fill-opacity="1" fill-rule="nonzero"/><path fill="#ffffff" d="M 271.03125 358.007812 C 271.03125 358.007812 273.949219 354.273438 273.179688 351.25 C 272.414062 348.230469 269.699219 346.695312 266.886719 349.867188 C 266.886719 349.867188 273.8125 338.398438 271.699219 334.050781 C 267.859375 326.167969 258.421875 331.753906 257.246094 341.816406 C 257.246094 341.816406 253.324219 326.988281 248.101562 327.449219 C 242.882812 327.910156 246.105469 341.269531 247.230469 344.1875 C 247.230469 344.1875 240.730469 334.71875 236.277344 337.839844 C 231.824219 340.964844 236.992188 358.984375 248.816406 364.253906 " fill-opacity="1" fill-rule="nonzero"/><path fill="#060f11" d="M 248.816406 364.855469 C 248.734375 364.855469 248.652344 364.839844 248.574219 364.804688 C 239.648438 360.824219 234.777344 350.097656 234.164062 343.753906 C 233.863281 340.632812 234.492188 338.359375 235.933594 337.347656 C 236.863281 336.695312 237.929688 336.472656 239.105469 336.6875 C 241.589844 337.136719 244.101562 339.488281 245.769531 341.375 C 244.792969 337.433594 243.832031 331.222656 245.589844 328.398438 C 246.171875 327.464844 247 326.941406 248.046875 326.851562 C 252.40625 326.464844 255.71875 334.902344 257.117188 339.273438 C 258.4375 334.339844 261.804688 330.453125 265.570312 329.8125 C 268.347656 329.339844 270.777344 330.789062 272.238281 333.789062 C 273.867188 337.136719 270.703125 344.0625 268.757812 347.757812 C 269.433594 347.5 270.109375 347.445312 270.757812 347.601562 C 272.171875 347.945312 273.296875 349.253906 273.765625 351.105469 C 274.597656 354.371094 271.632812 358.21875 271.507812 358.378906 C 271.300781 358.640625 270.925781 358.6875 270.664062 358.484375 C 270.402344 358.277344 270.355469 357.902344 270.558594 357.640625 C 270.585938 357.601562 273.285156 354.09375 272.601562 351.402344 C 272.242188 349.988281 271.449219 349.007812 270.476562 348.773438 C 269.515625 348.539062 268.402344 349.070312 267.335938 350.269531 C 267.132812 350.503906 266.78125 350.539062 266.53125 350.355469 C 266.28125 350.171875 266.210938 349.824219 266.375 349.558594 C 268.253906 346.449219 272.777344 337.640625 271.160156 334.320312 C 269.933594 331.796875 268.019531 330.617188 265.777344 331 C 262.484375 331.558594 258.585938 335.566406 257.84375 341.890625 C 257.8125 342.175781 257.578125 342.398438 257.289062 342.417969 C 257.003906 342.4375 256.738281 342.253906 256.664062 341.972656 C 255.609375 337.984375 252 327.707031 248.15625 328.050781 C 247.496094 328.109375 246.988281 328.433594 246.613281 329.035156 C 244.632812 332.214844 246.828125 341.46875 247.792969 343.972656 C 247.902344 344.257812 247.78125 344.582031 247.511719 344.722656 C 247.242188 344.867188 246.910156 344.78125 246.734375 344.53125 C 246.695312 344.472656 242.578125 338.535156 238.890625 337.871094 C 238.03125 337.714844 237.292969 337.867188 236.625 338.335938 C 235.566406 339.074219 235.109375 341.007812 235.363281 343.640625 C 235.945312 349.695312 240.582031 359.925781 249.0625 363.707031 C 249.367188 363.839844 249.503906 364.195312 249.367188 364.5 C 249.269531 364.722656 249.046875 364.855469 248.816406 364.855469 Z M 248.816406 364.855469 " fill-opacity="1" fill-rule="nonzero"/><path fill="#060f11" d="M 249.878906 360.378906 C 249.679688 360.378906 249.488281 360.28125 249.375 360.105469 C 247.648438 357.464844 246.207031 354.636719 245.082031 351.691406 C 244.960938 351.382812 245.117188 351.03125 245.425781 350.914062 C 245.734375 350.796875 246.085938 350.949219 246.203125 351.261719 C 247.300781 354.125 248.707031 356.878906 250.382812 359.449219 C 250.5625 359.726562 250.484375 360.101562 250.207031 360.28125 C 250.105469 360.34375 249.992188 360.378906 249.878906 360.378906 Z M 249.878906 360.378906 " fill-opacity="1" fill-rule="nonzero"/><path fill="#060f11" d="M 261.683594 360.6875 C 261.601562 360.6875 261.515625 360.667969 261.433594 360.632812 C 261.132812 360.492188 261 360.136719 261.136719 359.832031 L 264.085938 353.425781 C 264.222656 353.125 264.582031 352.988281 264.882812 353.128906 C 265.1875 353.269531 265.320312 353.625 265.179688 353.929688 L 262.230469 360.335938 C 262.128906 360.558594 261.910156 360.6875 261.683594 360.6875 Z M 261.683594 360.6875 " fill-opacity="1" fill-rule="nonzero"/><path fill="#060f11" d="M 257.085938 360.570312 C 256.839844 360.570312 256.605469 360.417969 256.519531 360.167969 C 255.1875 356.375 254.402344 352.421875 254.195312 348.40625 C 254.179688 348.074219 254.433594 347.792969 254.765625 347.773438 C 255.074219 347.757812 255.378906 348.011719 255.398438 348.34375 C 255.601562 352.242188 256.359375 356.085938 257.652344 359.769531 C 257.761719 360.082031 257.597656 360.425781 257.285156 360.535156 C 257.21875 360.558594 257.152344 360.570312 257.085938 360.570312 Z M 257.085938 360.570312 " fill-opacity="1" fill-rule="nonzero"/></svg>